<svg width="1252" height="324" viewBox="0 0 1252 324" fill="none" xmlns="http://www.w3.org/2000/svg">
<path d="M617.72 235.3C609.4 235.3 601.167 233.047 593.02 228.54C584.873 223.86 578.373 214.847 573.52 201.5L567.02 184.6H494.22L473.42 234H461.72L534.52 62.4H542.32L599.52 201.5C603.853 211.553 607.927 218.487 611.74 222.3C615.553 225.94 621.013 228.107 628.12 228.8V234C625 234.867 621.533 235.3 617.72 235.3ZM498.12 174.2H561.82L530.62 98.8L498.12 174.2ZM640.799 93.6C640.799 84.76 639.586 78.26 637.159 74.1C634.732 69.7667 629.879 67.6 622.599 67.6H617.399V62.4H640.799C647.212 62.4 651.979 63.2667 655.099 65C658.392 66.56 660.732 69.5067 662.119 73.84C663.506 78.1733 664.199 84.76 664.199 93.6V234H640.799V93.6ZM747.968 286C730.461 286 716.508 282.793 706.108 276.38C695.881 269.967 690.768 259.74 690.768 245.7C690.768 237.727 693.454 230.793 698.828 224.9C704.201 219.007 711.048 214.673 719.368 211.9C712.434 208.087 708.968 202.887 708.968 196.3C708.968 192.833 709.748 190.147 711.308 188.24C712.868 186.333 715.121 184.253 718.068 182C712.521 179.227 707.841 174.893 704.028 169C700.388 163.107 698.568 156.173 698.568 148.2C698.568 122.2 715.034 109.2 747.968 109.2H796.068V115.7L779.168 118.3V119.6C784.541 122.373 788.874 126.273 792.168 131.3C795.634 136.153 797.368 141.787 797.368 148.2C797.368 174.2 780.901 187.2 747.968 187.2C729.768 187.2 720.668 190.233 720.668 196.3C720.668 202.367 729.768 205.4 747.968 205.4C764.781 205.4 778.474 208.78 789.048 215.54C799.794 222.127 805.168 232.18 805.168 245.7C805.168 259.74 799.968 269.967 789.568 276.38C779.341 282.793 765.474 286 747.968 286ZM747.968 178.1C755.768 178.1 762.008 175.76 766.688 171.08C771.541 166.227 773.968 158.6 773.968 148.2C773.968 138.32 771.541 130.867 766.688 125.84C762.008 120.813 755.768 118.3 747.968 118.3C740.168 118.3 733.841 120.727 728.988 125.58C724.308 130.26 721.968 137.8 721.968 148.2C721.968 158.6 724.308 166.227 728.988 171.08C733.841 175.76 740.168 178.1 747.968 178.1ZM747.968 275.6C758.368 275.6 766.601 273.087 772.668 268.06C778.734 263.207 781.768 255.753 781.768 245.7C781.768 228.367 771.368 218.4 750.568 215.8L736.268 214.5C729.161 217.273 723.701 221.173 719.888 226.2C716.074 231.227 714.168 237.727 714.168 245.7C714.168 255.753 717.201 263.207 723.268 268.06C729.334 273.087 737.568 275.6 747.968 275.6ZM880.877 236.6C869.09 236.6 858.863 233.827 850.197 228.28C841.53 222.56 834.943 214.847 830.437 205.14C825.93 195.433 823.677 184.687 823.677 172.9C823.677 161.113 825.93 150.367 830.437 140.66C834.943 130.953 841.53 123.327 850.197 117.78C858.863 112.06 869.09 109.2 880.877 109.2C892.663 109.2 902.89 112.06 911.557 117.78C920.223 123.327 926.81 130.953 931.317 140.66C935.823 150.367 938.077 161.113 938.077 172.9C938.077 184.687 935.823 195.433 931.317 205.14C926.81 214.847 920.223 222.56 911.557 228.28C902.89 233.827 892.663 236.6 880.877 236.6ZM880.877 226.2C887.29 226.2 892.923 223.86 897.777 219.18C902.803 214.5 906.617 208.087 909.217 199.94C911.99 191.793 913.377 182.78 913.377 172.9C913.377 163.02 911.99 154.007 909.217 145.86C906.617 137.713 902.803 131.3 897.777 126.62C892.923 121.94 887.29 119.6 880.877 119.6C874.463 119.6 868.743 121.94 863.717 126.62C858.863 131.3 855.05 137.713 852.277 145.86C849.677 154.007 848.377 163.02 848.377 172.9C848.377 182.78 849.677 191.793 852.277 199.94C855.05 208.087 858.863 214.5 863.717 219.18C868.743 223.86 874.463 226.2 880.877 226.2ZM972.468 143C972.468 134.16 971.254 127.66 968.828 123.5C966.401 119.167 961.548 117 954.268 117H949.068V111.8H972.468C978.881 111.8 983.734 112.667 987.028 114.4C990.494 116.133 993.008 118.733 994.568 122.2H995.868C999.508 118.56 1004.19 115.527 1009.91 113.1C1015.8 110.5 1022.39 109.2 1029.67 109.2C1042.67 109.2 1053.24 112.667 1061.39 119.6C1069.71 126.533 1073.87 138.667 1073.87 156V234H1050.47V156C1050.47 143.867 1047.69 135.027 1042.15 129.48C1036.77 123.76 1030.01 120.9 1021.87 120.9C1012.68 120.9 1004.01 125.493 995.868 134.68V234H972.468V143ZM1157.57 236.6C1145.79 236.6 1135.82 233.827 1127.67 228.28C1119.53 222.56 1113.37 214.933 1109.21 205.4C1105.05 195.693 1102.97 184.86 1102.97 172.9C1102.97 161.113 1105.05 150.367 1109.21 140.66C1113.37 130.953 1119.35 123.327 1127.15 117.78C1135.13 112.06 1144.4 109.2 1154.97 109.2C1172.48 109.2 1185.48 114.14 1193.97 124.02C1202.64 133.727 1206.97 147.853 1206.97 166.4L1206.45 176.8H1127.67C1127.67 191.36 1130.79 203.233 1137.03 212.42C1143.27 221.607 1151.85 226.2 1162.77 226.2C1170.92 226.2 1177.77 224.467 1183.31 221C1189.03 217.533 1194.32 212.333 1199.17 205.4L1204.37 209.3C1198.65 218.833 1191.98 225.767 1184.35 230.1C1176.73 234.433 1167.8 236.6 1157.57 236.6ZM1182.27 166.4C1182.27 151.147 1180.02 139.533 1175.51 131.56C1171.01 123.587 1164.16 119.6 1154.97 119.6C1149.77 119.6 1145.09 121.68 1140.93 125.84C1136.77 129.827 1133.48 135.373 1131.05 142.48C1128.8 149.587 1127.67 157.56 1127.67 166.4H1182.27Z" fill="white"/>
<circle cx="231" cy="162" r="112" stroke="white" stroke-width="32"/>
<circle cx="231.5" cy="162.5" r="54.5" fill="white"/>
<path d="M76 153C76 144.163 83.1634 137 92 137H108V177H92C83.1634 177 76 169.837 76 161V153Z" fill="white"/>
<path d="M409 166C409 174.837 401.837 182 393 182H354V142H393C401.837 142 409 149.163 409 158V166Z" fill="white"/>
<rect y="137" width="65" height="40" rx="16" fill="white"/>
<path d="M51 222C51 213.163 58.1634 206 67 206H146V246H67C58.1634 246 51 238.837 51 230V222Z" fill="white"/>
<path d="M33 84C33 75.1634 40.1634 68 49 68H146V108H49C40.1634 108 33 100.837 33 92V84Z" fill="white"/>
</svg>
